<svg width="432" height="559" xmlns="http://www.w3.org/2000/svg" xmlns:xlink="http://www.w3.org/1999/xlink" xml:space="preserve" overflow="hidden"><g transform="translate(-863 -1461)"><path d="M1265.82 1990.52C1250.5 2005.83 1230.33 2014.34 1208.7 2014.1L949.344 2013.86C927.954 2013.86 907.536 2005.59 892.223 1990.28 876.909 1974.96 868.402 1954.79 868.645 1933.16L868.645 1547.16C868.645 1525.77 876.909 1505.36 892.223 1490.04 907.536 1474.73 927.711 1466.22 949.344 1466.47L1208.94 1466.47C1244.43 1466.47 1276.03 1490.29 1286.24 1523.83 1288.42 1531.37 1289.64 1539.39 1289.64 1547.16L1289.64 1933.16C1289.4 1954.79 1281.13 1975.21 1265.82 1990.52Z" fill="#F2443D" fill-rule="evenodd"/><path d="M895.869 1493.69C909.481 1480.08 928.197 1471.57 949.101 1471.57L1208.7 1471.57C1242.73 1471.57 1271.65 1494.18 1280.89 1525.29 1282.83 1532.09 1284.05 1539.63 1284.05 1546.92L1284.05 1932.91C1284.05 1953.82 1275.54 1972.53 1261.93 1986.15 1248.32 1999.76 1229.6 2008.26 1208.7 2008.26L949.101 2008.75C907.293 2008.75 873.507 1974.96 873.507 1933.16L873.75 1546.92C873.75 1526.02 882.257 1507.3 895.869 1493.69M888.577 1486.4 895.869 1493.69 888.577 1486.4C888.577 1486.4 888.577 1486.4 888.577 1486.4 872.291 1502.68 863.541 1524.07 863.298 1547.16L863.541 1933.4C863.541 1980.55 902.189 2019.2 949.344 2019.2L1208.94 2019.2C1231.79 2019.2 1253.42 2010.21 1269.71 1993.92 1285.99 1977.64 1294.74 1956.25 1294.99 1933.16L1294.5 1547.16C1294.5 1538.9 1293.29 1530.39 1290.85 1522.61 1280.16 1486.64 1246.13 1461.36 1208.7 1461.36L949.344 1461.12C926.252 1461.36 904.862 1470.11 888.577 1486.4L888.577 1486.4Z" fill-rule="evenodd"/><path d="M1284.29 1883.08C1284.29 1883.08 1284.29 1933.16 1284.29 1933.16 1284.29 1974.96 1250.5 2008.75 1208.7 2008.75L949.101 2008.75C907.293 2008.75 873.506 1974.96 873.506 1933.16L873.506 1553.97C873.506 1553.97 892.952 1567.58 892.952 1567.58 895.14 1569.28 891.25 1595.05 891.25 1597.48 889.792 1622.76 889.306 1648.04 889.063 1673.56 888.577 1739.19 890.521 1807.25 893.924 1872.88 896.841 1931.21 906.807 1981.53 947.642 1987.36 976.81 1991.74 1161.06 2002.92 1227.17 1983.96 1261.44 1973.99 1284.29 1892.81 1284.29 1883.08Z" fill="#D81A35" fill-rule="evenodd"/><path d="M1284.29 1605.5 1284.29 1682.8C1249.78 1709.05 1201.41 1730.19 1201.41 1730.19 1178.31 1838.36 1071.85 1831.55 1071.85 1831.55 966.845 1831.55 953.962 1734.08 953.962 1734.08 918.96 1729.71 891.007 1703.21 873.993 1682.31L873.993 1602.58C899.029 1621.79 934.76 1648.77 936.947 1650.95 940.35 1654.36 1171.51 1697.87 1171.51 1697.87L1284.29 1605.5Z" fill="#D81A35" fill-rule="evenodd"/><path d="M1241.75 1667.97C1212.1 1697.62 1172.97 1713.91 1131.16 1713.91L1024.94 1713.67C983.13 1713.67 943.996 1697.38 914.342 1667.73 884.688 1638.07 868.402 1598.94 868.402 1557.13L868.402 1546.92C868.402 1525.53 876.666 1505.11 891.98 1489.8 894.41 1487.37 896.841 1485.42 899.515 1483.24 906.321 1477.89 914.099 1473.51 922.363 1470.6 922.363 1470.6 922.363 1470.6 922.606 1470.35 931.113 1467.19 940.107 1465.98 949.344 1465.98L1208.94 1465.98C1244.43 1465.98 1276.03 1489.8 1286.24 1523.34 1286.48 1523.59 1286.24 1523.83 1286.48 1524.07 1287.21 1530.64 1287.69 1536.96 1287.69 1543.76L1287.69 1556.89C1287.69 1570.98 1285.99 1584.84 1282.35 1598.21 1274.81 1624.7 1260.96 1648.77 1241.75 1667.97Z" fill="#F2443D" fill-rule="evenodd"/><path d="M895.869 1493.69C898.057 1491.5 900.487 1489.56 902.918 1487.61 909.238 1482.75 916.286 1478.62 924.308 1475.95 924.308 1475.95 924.308 1475.95 924.308 1475.95 932.086 1473.03 940.593 1471.81 949.344 1471.81L1208.94 1471.81C1242.97 1471.81 1271.9 1494.42 1281.13 1525.53 1281.86 1531.61 1282.35 1537.93 1282.35 1544.25L1282.35 1557.37C1282.35 1570.98 1280.4 1584.6 1277 1597.24 1269.95 1622.76 1256.34 1646.09 1238.11 1664.32 1210.64 1691.79 1172.97 1708.56 1131.16 1708.56L1024.94 1708.8C941.322 1708.8 873.749 1641.23 873.749 1557.62L873.75 1547.41C873.75 1526.02 882.257 1507.3 895.869 1493.69M888.577 1486.4 888.577 1486.4C872.291 1502.68 863.541 1524.07 863.298 1547.16L863.298 1557.37C863.298 1600.64 880.069 1641.23 910.453 1671.62 941.079 1702.24 981.672 1719.01 1024.69 1718.77L1130.67 1718.77C1173.94 1718.77 1214.53 1702 1244.91 1671.62 1264.85 1651.68 1279.19 1627.13 1286.72 1600.15 1290.37 1586.3 1292.56 1571.96 1292.56 1557.37L1292.56 1544.25C1292.56 1537.44 1292.07 1530.64 1291.34 1524.07 1291.34 1523.59 1291.1 1522.86 1291.1 1522.37 1280.4 1486.4 1246.37 1461.12 1208.94 1461.12L949.344 1461.12C939.621 1461.12 930.141 1462.82 921.148 1465.98 921.148 1465.98 920.905 1466.22 920.905 1466.22 912.154 1469.14 904.133 1473.76 896.598 1479.35 893.924 1481.54 891.007 1483.97 888.577 1486.4L888.577 1486.4Z" fill-rule="evenodd"/><path d="M1276.76 1597.48C1259.26 1661.65 1200.68 1708.56 1130.92 1708.8L1024.94 1708.81C941.322 1708.8 873.749 1641.23 873.749 1557.62L873.749 1547.41C873.749 1523.1 885.174 1501.47 902.674 1487.86 853.575 1553.97 908.751 1658.25 978.026 1668.7 978.026 1668.7 1177.83 1727.52 1276.76 1597.48Z" fill="#D81A35" fill-rule="evenodd"/><path d="M1147.69 1775.65C1129.21 1794.12 1104.91 1804.33 1078.9 1804.09L1077.93 1804.09C1024.94 1803.6 981.915 1760.09 981.672 1706.86 981.672 1681.09 991.638 1656.54 1010.11 1638.07 1028.1 1620.08 1052.4 1609.88 1077.93 1609.63 1078.41 1609.63 1078.41 1609.63 1078.9 1609.63 1132.37 1609.63 1176.13 1653.39 1176.13 1706.86 1176.37 1732.87 1166.16 1757.18 1147.69 1775.65Z" fill="#F3C53F" fill-rule="evenodd"/><path d="M1014 1641.96C1030.53 1625.43 1052.89 1615.22 1077.93 1614.98 1078.41 1614.98 1078.41 1614.98 1078.9 1614.98 1129.94 1614.98 1171.02 1656.06 1171.02 1707.1 1171.02 1732.38 1160.57 1755.47 1144.04 1772 1127.27 1788.77 1104.42 1798.98 1079.14 1798.98 1078.66 1798.98 1078.66 1798.98 1078.17 1798.98 1027.61 1798.5 987.019 1757.42 987.019 1706.86 987.019 1681.58 997.228 1658.73 1014 1641.96M1006.71 1634.67C1006.71 1634.67 1006.71 1634.67 1006.71 1634.67 987.262 1654.11 976.81 1679.64 976.567 1707.1 976.81 1762.77 1022.02 1808.46 1077.93 1809.43 1078.41 1809.43 1078.9 1809.43 1079.14 1809.68 1106.37 1809.68 1132.13 1798.98 1151.58 1779.54 1171.02 1760.09 1181.47 1734.57 1181.72 1707.1 1181.72 1679.88 1171.02 1654.11 1151.58 1634.67 1132.13 1615.22 1106.61 1604.77 1079.14 1604.53 1078.66 1604.53 1078.17 1604.53 1077.68 1604.53 1050.95 1605.01 1025.67 1615.71 1006.71 1634.67L1006.71 1634.67Z" fill-rule="evenodd"/><path d="M1079.14 1651.2 1098.59 1687.17 1134.8 1706.86 1098.83 1726.79 1078.9 1762.77 1059.21 1726.55 1023.24 1707.1 1059.21 1687.17Z" fill="#ECA73A" fill-rule="evenodd"/></g></svg>